<?xml version="1.0" encoding="UTF-8" standalone="no"?>
<!DOCTYPE svg PUBLIC "-//W3C//DTD SVG 1.1//EN"
 "http://www.w3.org/Graphics/SVG/1.1/DTD/svg11.dtd">
<!-- Generated by graphviz version 12.2.1 (20241206.2353)
 -->
<!-- Pages: 1 -->
<svg width="992pt" height="198pt"
 viewBox="0.00 0.00 991.75 198.00" xmlns="http://www.w3.org/2000/svg" xmlns:xlink="http://www.w3.org/1999/xlink">
<g id="graph0" class="graph" transform="scale(1 1) rotate(0) translate(4 194)">
<polygon fill="white" stroke="none" points="-4,4 -4,-194 987.75,-194 987.75,4 -4,4"/>
<!-- fetch_data_source_a -->
<g id="node1" class="node">
<title>fetch_data_source_a</title>
<polygon fill="lightblue" stroke="black" points="127.38,-167 0.37,-167 0.37,-131 127.38,-131 127.38,-167"/>
<text text-anchor="middle" x="63.88" y="-143.95" font-family="Times,serif" font-size="14.00">fetch_data_source_a</text>
</g>
<!-- llm_summarize_data_source_a -->
<g id="node2" class="node">
<title>llm_summarize_data_source_a</title>
<polygon fill="lightblue" stroke="black" points="350.38,-167 164.12,-167 164.12,-131 350.38,-131 350.38,-167"/>
<text text-anchor="middle" x="257.25" y="-143.95" font-family="Times,serif" font-size="14.00">llm_summarize_data_source_a</text>
</g>
<!-- fetch_data_source_a&#45;&gt;llm_summarize_data_source_a -->
<g id="edge1" class="edge">
<title>fetch_data_source_a&#45;&gt;llm_summarize_data_source_a</title>
<path fill="none" stroke="gray" d="M127.8,-149C135.74,-149 144.02,-149 152.39,-149"/>
<polygon fill="gray" stroke="gray" points="152.31,-152.5 162.31,-149 152.31,-145.5 152.31,-152.5"/>
</g>
<!-- control_flow_data_source_a -->
<g id="node3" class="node">
<title>control_flow_data_source_a</title>
<polygon fill="lightblue" stroke="black" points="556.5,-167 386.75,-167 386.75,-131 556.5,-131 556.5,-167"/>
<text text-anchor="middle" x="471.62" y="-143.95" font-family="Times,serif" font-size="14.00">control_flow_data_source_a</text>
</g>
<!-- llm_summarize_data_source_a&#45;&gt;control_flow_data_source_a -->
<g id="edge2" class="edge">
<title>llm_summarize_data_source_a&#45;&gt;control_flow_data_source_a</title>
<path fill="none" stroke="gray" d="M350.78,-149C358.84,-149 367,-149 375.07,-149"/>
<polygon fill="gray" stroke="gray" points="374.91,-152.5 384.91,-149 374.91,-145.5 374.91,-152.5"/>
</g>
<!-- llm_evaluate_source_a_sector_1 -->
<g id="node4" class="node">
<title>llm_evaluate_source_a_sector_1</title>
<polygon fill="lightblue" stroke="black" points="790,-190 596.24,-190 596.24,-154 790,-154 790,-190"/>
<text text-anchor="middle" x="693.12" y="-166.95" font-family="Times,serif" font-size="14.00">llm_evaluate_source_a_sector_1</text>
</g>
<!-- control_flow_data_source_a&#45;&gt;llm_evaluate_source_a_sector_1 -->
<g id="edge3" class="edge">
<title>control_flow_data_source_a&#45;&gt;llm_evaluate_source_a_sector_1</title>
<path fill="none" stroke="gray" d="M556.86,-157.83C565.97,-158.78 575.33,-159.76 584.67,-160.74"/>
<polygon fill="gray" stroke="gray" points="584.21,-164.21 594.52,-161.77 584.94,-157.25 584.21,-164.21"/>
</g>
<!-- llm_evaluate_source_a_sector_2 -->
<g id="node5" class="node">
<title>llm_evaluate_source_a_sector_2</title>
<polygon fill="lightblue" stroke="black" points="790,-136 596.24,-136 596.24,-100 790,-100 790,-136"/>
<text text-anchor="middle" x="693.12" y="-112.95" font-family="Times,serif" font-size="14.00">llm_evaluate_source_a_sector_2</text>
</g>
<!-- control_flow_data_source_a&#45;&gt;llm_evaluate_source_a_sector_2 -->
<g id="edge4" class="edge">
<title>control_flow_data_source_a&#45;&gt;llm_evaluate_source_a_sector_2</title>
<path fill="none" stroke="gray" d="M556.86,-137.1C565.97,-135.82 575.33,-134.49 584.67,-133.18"/>
<polygon fill="gray" stroke="gray" points="585.12,-136.65 594.53,-131.78 584.14,-129.72 585.12,-136.65"/>
</g>
<!-- llm_evaluate_all_sources -->
<g id="node10" class="node">
<title>llm_evaluate_all_sources</title>
<polygon fill="lightblue" stroke="black" points="983.75,-109 829.75,-109 829.75,-73 983.75,-73 983.75,-109"/>
<text text-anchor="middle" x="906.75" y="-85.95" font-family="Times,serif" font-size="14.00">llm_evaluate_all_sources</text>
</g>
<!-- llm_evaluate_source_a_sector_1&#45;&gt;llm_evaluate_all_sources -->
<g id="edge12" class="edge">
<title>llm_evaluate_source_a_sector_1&#45;&gt;llm_evaluate_all_sources</title>
<path fill="none" stroke="gray" d="M768.33,-153.53C776.97,-150.89 785.61,-148.04 793.75,-145 816.66,-136.46 841.22,-124.9 861.48,-114.68"/>
<polygon fill="gray" stroke="gray" points="863.01,-117.83 870.31,-110.16 859.82,-111.6 863.01,-117.83"/>
</g>
<!-- llm_evaluate_source_a_sector_2&#45;&gt;llm_evaluate_all_sources -->
<g id="edge13" class="edge">
<title>llm_evaluate_source_a_sector_2&#45;&gt;llm_evaluate_all_sources</title>
<path fill="none" stroke="gray" d="M790.34,-105.72C799.65,-104.54 809.07,-103.33 818.29,-102.16"/>
<polygon fill="gray" stroke="gray" points="818.45,-105.67 827.93,-100.93 817.57,-98.72 818.45,-105.67"/>
</g>
<!-- fetch_data_source_b -->
<g id="node6" class="node">
<title>fetch_data_source_b</title>
<polygon fill="lightblue" stroke="black" points="127.75,-36 0,-36 0,0 127.75,0 127.75,-36"/>
<text text-anchor="middle" x="63.88" y="-12.95" font-family="Times,serif" font-size="14.00">fetch_data_source_b</text>
</g>
<!-- llm_summarize_data_source_b -->
<g id="node7" class="node">
<title>llm_summarize_data_source_b</title>
<polygon fill="lightblue" stroke="black" points="350.75,-36 163.75,-36 163.75,0 350.75,0 350.75,-36"/>
<text text-anchor="middle" x="257.25" y="-12.95" font-family="Times,serif" font-size="14.00">llm_summarize_data_source_b</text>
</g>
<!-- fetch_data_source_b&#45;&gt;llm_summarize_data_source_b -->
<g id="edge5" class="edge">
<title>fetch_data_source_b&#45;&gt;llm_summarize_data_source_b</title>
<path fill="none" stroke="gray" d="M128.07,-18C135.76,-18 143.78,-18 151.88,-18"/>
<polygon fill="gray" stroke="gray" points="151.85,-21.5 161.85,-18 151.85,-14.5 151.85,-21.5"/>
</g>
<!-- llm_evaluate_source_b -->
<g id="node8" class="node">
<title>llm_evaluate_source_b</title>
<polygon fill="lightblue" stroke="black" points="542.62,-36 400.62,-36 400.62,0 542.62,0 542.62,-36"/>
<text text-anchor="middle" x="471.62" y="-12.95" font-family="Times,serif" font-size="14.00">llm_evaluate_source_b</text>
</g>
<!-- llm_summarize_data_source_b&#45;&gt;llm_evaluate_source_b -->
<g id="edge6" class="edge">
<title>llm_summarize_data_source_b&#45;&gt;llm_evaluate_source_b</title>
<path fill="none" stroke="gray" d="M351.09,-18C363.74,-18 376.64,-18 389.07,-18"/>
<polygon fill="gray" stroke="gray" points="388.82,-21.5 398.82,-18 388.82,-14.5 388.82,-21.5"/>
</g>
<!-- llm_rank_merge_source_b_and_c -->
<g id="node9" class="node">
<title>llm_rank_merge_source_b_and_c</title>
<polygon fill="lightblue" stroke="black" points="793.75,-82 592.5,-82 592.5,-46 793.75,-46 793.75,-82"/>
<text text-anchor="middle" x="693.12" y="-58.95" font-family="Times,serif" font-size="14.00">llm_rank_merge_source_b_and_c</text>
</g>
<!-- llm_evaluate_source_b&#45;&gt;llm_rank_merge_source_b_and_c -->
<g id="edge7" class="edge">
<title>llm_evaluate_source_b&#45;&gt;llm_rank_merge_source_b_and_c</title>
<path fill="none" stroke="gray" d="M542.98,-32.74C558.93,-36.09 576.15,-39.7 593.03,-43.23"/>
<polygon fill="gray" stroke="gray" points="592.07,-46.61 602.58,-45.23 593.51,-39.76 592.07,-46.61"/>
</g>
<!-- llm_evaluate_source_b&#45;&gt;llm_evaluate_all_sources -->
<g id="edge8" class="edge">
<title>llm_evaluate_source_b&#45;&gt;llm_evaluate_all_sources</title>
<path fill="none" stroke="gray" d="M543.06,-14.4C608.95,-12.84 709.56,-15.13 793.75,-37 818.95,-43.55 845.27,-55.91 866.06,-67.16"/>
<polygon fill="gray" stroke="gray" points="864.33,-70.2 874.77,-72 867.72,-64.08 864.33,-70.2"/>
</g>
<!-- llm_rank_merge_source_b_and_c&#45;&gt;llm_evaluate_all_sources -->
<g id="edge11" class="edge">
<title>llm_rank_merge_source_b_and_c&#45;&gt;llm_evaluate_all_sources</title>
<path fill="none" stroke="gray" d="M794.05,-76.75C802.12,-77.78 810.24,-78.81 818.22,-79.83"/>
<polygon fill="gray" stroke="gray" points="817.52,-83.27 827.88,-81.07 818.4,-76.33 817.52,-83.27"/>
</g>
<!-- fetch_data_source_c -->
<g id="node11" class="node">
<title>fetch_data_source_c</title>
<polygon fill="lightblue" stroke="black" points="320.75,-90 193.75,-90 193.75,-54 320.75,-54 320.75,-90"/>
<text text-anchor="middle" x="257.25" y="-66.95" font-family="Times,serif" font-size="14.00">fetch_data_source_c</text>
</g>
<!-- llm_extract_data_source_c -->
<g id="node12" class="node">
<title>llm_extract_data_source_c</title>
<polygon fill="lightblue" stroke="black" points="552.75,-90 390.49,-90 390.49,-54 552.75,-54 552.75,-90"/>
<text text-anchor="middle" x="471.62" y="-66.95" font-family="Times,serif" font-size="14.00">llm_extract_data_source_c</text>
</g>
<!-- fetch_data_source_c&#45;&gt;llm_extract_data_source_c -->
<g id="edge9" class="edge">
<title>fetch_data_source_c&#45;&gt;llm_extract_data_source_c</title>
<path fill="none" stroke="gray" d="M321.11,-72C339.21,-72 359.33,-72 378.8,-72"/>
<polygon fill="gray" stroke="gray" points="378.65,-75.5 388.65,-72 378.65,-68.5 378.65,-75.5"/>
</g>
<!-- llm_extract_data_source_c&#45;&gt;llm_rank_merge_source_b_and_c -->
<g id="edge10" class="edge">
<title>llm_extract_data_source_c&#45;&gt;llm_rank_merge_source_b_and_c</title>
<path fill="none" stroke="gray" d="M553.11,-69.07C562.16,-68.74 571.49,-68.4 580.84,-68.06"/>
<polygon fill="gray" stroke="gray" points="580.85,-71.56 590.72,-67.7 580.6,-64.56 580.85,-71.56"/>
</g>
</g>
</svg>
